<svg width="17" height="17" viewBox="0 0 17 17" fill="none" xmlns="http://www.w3.org/2000/svg">
<path d="M12.0306 8.68062L7.0306 13.6806C6.8897 13.8215 6.69861 13.9007 6.49935 13.9007C6.30009 13.9007 6.10899 13.8215 5.9681 13.6806C5.8272 13.5397 5.74805 13.3486 5.74805 13.1494C5.74805 12.9501 5.8272 12.759 5.9681 12.6181L10.4375 8.15L5.96935 3.68062C5.89958 3.61086 5.84424 3.52803 5.80649 3.43688C5.76873 3.34573 5.7493 3.24803 5.7493 3.14937C5.7493 3.05071 5.76873 2.95301 5.80649 2.86186C5.84424 2.77071 5.89958 2.68789 5.96935 2.61812C6.03911 2.54836 6.12194 2.49302 6.21309 2.45526C6.30424 2.4175 6.40194 2.39807 6.5006 2.39807C6.59926 2.39807 6.69696 2.4175 6.78811 2.45526C6.87926 2.49302 6.96208 2.54836 7.03185 2.61812L12.0318 7.61812C12.1017 7.68788 12.1571 7.77074 12.1948 7.86195C12.2326 7.95316 12.2519 8.05092 12.2518 8.14963C12.2517 8.24834 12.2321 8.34606 12.1941 8.43718C12.1562 8.5283 12.1006 8.61103 12.0306 8.68062Z" fill="white"/>
</svg>
