<svg width="17" height="17" viewBox="0 0 17 17" fill="none" xmlns="http://www.w3.org/2000/svg">
<path d="M15.3641 5.39068L7.36409 13.3907C7.29442 13.4606 7.21162 13.5161 7.12046 13.5539C7.02929 13.5918 6.93155 13.6113 6.83284 13.6113C6.73413 13.6113 6.63639 13.5918 6.54523 13.5539C6.45407 13.5161 6.37127 13.4606 6.30159 13.3907L2.80159 9.89068C2.73183 9.82091 2.67649 9.73809 2.63873 9.64694C2.60098 9.55578 2.58154 9.45809 2.58154 9.35943C2.58154 9.26076 2.60098 9.16307 2.63873 9.07192C2.67649 8.98076 2.73183 8.89794 2.80159 8.82818C2.87136 8.75841 2.95418 8.70307 3.04533 8.66531C3.13649 8.62756 3.23418 8.60812 3.33284 8.60812C3.43151 8.60812 3.5292 8.62756 3.62035 8.66531C3.71151 8.70307 3.79433 8.75841 3.86409 8.82818L6.83347 11.7976L14.3028 4.32943C14.4437 4.18853 14.6348 4.10938 14.8341 4.10938C15.0334 4.10938 15.2244 4.18853 15.3653 4.32943C15.5062 4.47032 15.5854 4.66142 15.5854 4.86068C15.5854 5.05993 15.5062 5.25103 15.3653 5.39193L15.3641 5.39068Z" fill="white"/>
</svg>
