<svg width="15" height="15" viewBox="0 0 15 15" fill="none" xmlns="http://www.w3.org/2000/svg">
<g clip-path="url(#clip0_0_383)">
<path d="M11.0002 5.15002H4.0002V12.738C4.0002 12.811 4.0142 12.884 4.0412 12.957C4.07621 13.0277 4.12248 13.0922 4.1782 13.148C4.22537 13.2039 4.28642 13.2463 4.3552 13.271C4.4282 13.298 4.5052 13.312 4.5882 13.312H10.4122C10.4942 13.312 10.5722 13.298 10.6442 13.272C10.7135 13.2472 10.7749 13.2044 10.8222 13.148C10.8765 13.094 10.9185 13.0288 10.9452 12.957C10.9807 12.8891 10.9995 12.8137 11.0002 12.737V5.15002ZM10.4122 3.98802H12.7502C12.9142 3.98802 13.0502 4.04802 13.1602 4.16602C13.2167 4.21531 13.2618 4.27621 13.2925 4.34456C13.3232 4.41291 13.3388 4.48709 13.3382 4.56202C13.3382 4.72602 13.2782 4.86702 13.1602 4.98602C13.1066 5.03987 13.0427 5.08219 12.9721 5.11039C12.9016 5.13859 12.8261 5.15208 12.7502 5.15002H12.1622V12.738C12.1622 12.975 12.1162 13.203 12.0252 13.422C11.9352 13.632 11.8112 13.813 11.6562 13.968C11.4988 14.1339 11.3079 14.2644 11.0962 14.351C10.8862 14.442 10.6582 14.488 10.4122 14.488H4.5882C4.3422 14.488 4.1142 14.438 3.9042 14.338C3.69737 14.2483 3.50784 14.1231 3.3442 13.968C3.18747 13.811 3.06192 13.6258 2.9742 13.422C2.8837 13.2054 2.83746 12.9728 2.8382 12.738V5.15002H2.2502C2.09288 5.15277 1.94073 5.09391 1.8262 4.98602C1.71831 4.8715 1.65946 4.71934 1.6622 4.56202C1.66106 4.48832 1.67502 4.41516 1.70323 4.34706C1.73143 4.27895 1.77328 4.21734 1.8262 4.16602C1.88097 4.10897 1.94685 4.06374 2.01977 4.03313C2.0927 4.00251 2.17112 3.98716 2.2502 3.98802H4.5882V3.40002C4.5882 3.16302 4.6332 2.94002 4.7252 2.73002C4.8152 2.51102 4.9392 2.32402 5.0942 2.17002C5.2492 2.00502 5.4312 1.87802 5.6412 1.78702C5.8592 1.69602 6.0912 1.65002 6.3382 1.65002H8.6622C8.9082 1.65002 9.1362 1.69602 9.3462 1.78702C9.5562 1.87702 9.7422 2.00502 9.9062 2.17002C10.0612 2.32402 10.1842 2.51102 10.2762 2.73002C10.3662 2.94002 10.4122 3.16302 10.4122 3.40002V3.98802ZM5.7502 3.98802H9.2502V3.40002C9.25156 3.32344 9.23258 3.24788 9.1952 3.18102C9.16846 3.10923 9.1265 3.04407 9.0722 2.99002C9.02503 2.93419 8.96398 2.89176 8.8952 2.86702C8.82296 2.83057 8.74312 2.81173 8.6622 2.81202H6.3382C6.25728 2.81173 6.17744 2.83057 6.1052 2.86702C6.03642 2.89176 5.97537 2.93419 5.9282 2.99002C5.87252 3.04587 5.82625 3.11038 5.7912 3.18102C5.76274 3.25046 5.74878 3.32499 5.7502 3.40002V3.98802ZM5.7502 7.48802C5.7502 7.32402 5.8052 7.18802 5.9142 7.07802C5.96897 7.02097 6.03485 6.97574 6.10777 6.94513C6.1807 6.91451 6.25912 6.89916 6.3382 6.90002C6.41314 6.89941 6.48732 6.915 6.55567 6.94572C6.62402 6.97644 6.68492 7.02157 6.7342 7.07802C6.8532 7.18802 6.9122 7.32402 6.9122 7.48802V10.988C6.9122 11.143 6.8522 11.28 6.7342 11.398C6.68288 11.4509 6.62127 11.4928 6.55317 11.521C6.48506 11.5492 6.41191 11.5632 6.3382 11.562C6.18088 11.5648 6.02873 11.5059 5.9142 11.398C5.80825 11.2879 5.74942 11.1408 5.7502 10.988V7.48802ZM8.0882 7.48802C8.0882 7.32402 8.1432 7.18802 8.2522 7.07802C8.30484 7.02209 8.36837 6.97751 8.43888 6.94705C8.50939 6.91658 8.58539 6.90086 8.6622 6.90086C8.73901 6.90086 8.81501 6.91658 8.88552 6.94705C8.95603 6.97751 9.01956 7.02209 9.0722 7.07802C9.1912 7.18802 9.2502 7.32402 9.2502 7.48802V10.988C9.2502 11.143 9.1902 11.28 9.0722 11.398C9.01868 11.4519 8.9547 11.4943 8.88418 11.5225C8.81367 11.5507 8.73812 11.5641 8.6622 11.562C8.5094 11.5628 8.36231 11.504 8.2522 11.398C8.14625 11.2879 8.08742 11.1408 8.0882 10.988V7.48802Z" fill="#666666"/>
</g>
<defs>
<clipPath id="clip0_0_383">
<rect width="14" height="14" fill="white" transform="translate(0.5 0.900024)"/>
</clipPath>
</defs>
</svg>
